<svg xmlns="http://www.w3.org/2000/svg" width="64.562" height="73.116" viewBox="0 0 64.562 73.116">
  <g id="그룹_212" data-name="그룹 212" transform="translate(-1316.669 -290.91)">
    <path id="패스_46" data-name="패스 46" d="M1374.176,290.91h-50.451a6.911,6.911,0,0,0-7.056,6.767v48.394a6.916,6.916,0,0,0,7.056,6.768h50.451a6.917,6.917,0,0,0,7.054-6.768V297.677A6.912,6.912,0,0,0,1374.176,290.91Zm-39.218,45.813h-5.085v2.219l4.438.013V340.6h-4.438v3.841h-1.862v-9.364h6.947Zm8.38,4.691a2.975,2.975,0,0,1-1.058,2.358,4.2,4.2,0,0,1-2.827.91,4.125,4.125,0,0,1-2.815-.91,3.014,3.014,0,0,1-1.031-2.358v-6.387h1.916v5.942a3.338,3.338,0,0,0,.3,1.388q.3.665,1.627.666c.89,0,1.438-.223,1.651-.666a3.184,3.184,0,0,0,.316-1.388v-5.942h1.919Zm8.813,2.993-2.167.023-3.676-6.4-.076.012v6.4h-1.864V335.01h2.125l3.726,6.414.079-.01v-6.387h1.852Zm8.046-.89a3.9,3.9,0,0,1-3.012,1.151,4.177,4.177,0,0,1-3.305-1.385,5.224,5.224,0,0,1-1.214-3.567,5.109,5.109,0,0,1,1.214-3.528,4.207,4.207,0,0,1,3.305-1.365,3.871,3.871,0,0,1,3.078,1.18,4.914,4.914,0,0,1,1.229,2.208l-1.982-.015a2.955,2.955,0,0,0-.7-1.164,2.028,2.028,0,0,0-1.564-.56,2.32,2.32,0,0,0-1.929.886,3.705,3.705,0,0,0-.7,2.358,3.836,3.836,0,0,0,.7,2.391,2.3,2.3,0,0,0,1.929.917,1.993,1.993,0,0,0,1.56-.614,3.432,3.432,0,0,0,.751-1.235h1.97A5.219,5.219,0,0,1,1360.2,343.516Zm9.672.927h-1.891V340.35h-3.925v4.093h-1.891v-9.416h1.891v3.663h3.925v-3.663h1.891Zm.019-10.989h-12.961V316.368h-2.076v17.085h-11.579V316.368H1341.2v17.085h-13.137V299.066l7.611,6.527h27.045l7.17-6.527Z" fill="#fff"/>
    <path id="패스_47" data-name="패스 47" d="M1435.888,606.551l25.338,13.178-10.034-13.178Z" transform="translate(-98.551 -255.704)" fill="#fff"/>
  </g>
</svg>
