<svg xmlns="http://www.w3.org/2000/svg" xmlns:xlink="http://www.w3.org/1999/xlink" width="134.473" height="95.794" viewBox="0 0 134.473 95.794">
  <defs>
    <clipPath id="clip-path">
      <rect id="사각형_311" data-name="사각형 311" width="87.13" height="54.957" fill="none"/>
    </clipPath>
    <clipPath id="clip-path-2">
      <rect id="사각형_312" data-name="사각형 312" width="46.952" height="33.304" fill="none"/>
    </clipPath>
  </defs>
  <g id="그룹_710" data-name="그룹 710" transform="translate(-1249.167 -326.048)">
    <g id="그룹_567" data-name="그룹 567" transform="translate(1296.511 326.048)">
      <g id="그룹_567-2" data-name="그룹 567" transform="translate(0 0)" clip-path="url(#clip-path)">
        <path id="패스_3775" data-name="패스 3775" d="M57.847,30.413c-2.5-.162-4.892.984-7.073,2.221-2.766,1.567-5.664,3.678-6.213,6.809a9.458,9.458,0,0,0,1.051,5.485c1,2.169,2.517,4.328,4.8,5.02,2.906.878,5.89-.875,8.419-2.553l5.041-3.342a19.139,19.139,0,0,0,4.745-3.947,6.472,6.472,0,0,0,1.34-5.8c-.953-2.915-4.3-4.169-7.242-5.043" transform="translate(-12.428 -8.178)" fill="#fff"/>
        <path id="패스_3776" data-name="패스 3776" d="M92.14,14.861c2.706-2.044,5.141-4.634,8.366-5.69a4.36,4.36,0,0,1,3.433.055,4.8,4.8,0,0,1,1.538,1.572,18.368,18.368,0,0,1,2.767,6.414,1.733,1.733,0,0,1-.22,1.62,1.51,1.51,0,0,1-.895.349,4.839,4.839,0,0,1-3.793-1.218,24.491,24.491,0,0,1-17.218,9c-2,.136-4.271-.1-5.549-1.641-1.914-2.316-.2-4.946,2.086-5.791a35.159,35.159,0,0,0,9.485-4.669" transform="translate(-22.287 -2.473)" fill="#fff"/>
        <path id="패스_3777" data-name="패스 3777" d="M92.14,14.861c2.706-2.044,5.141-4.634,8.366-5.69a4.36,4.36,0,0,1,3.433.055,4.8,4.8,0,0,1,1.538,1.572,18.368,18.368,0,0,1,2.767,6.414,1.733,1.733,0,0,1-.22,1.62,1.51,1.51,0,0,1-.895.349,4.839,4.839,0,0,1-3.793-1.218,24.491,24.491,0,0,1-17.218,9c-2,.136-4.271-.1-5.549-1.641-1.914-2.316-.2-4.946,2.086-5.791A35.159,35.159,0,0,0,92.14,14.861Z" transform="translate(-22.287 -2.473)" fill="none" stroke="#ea5028" stroke-linecap="round" stroke-miterlimit="10" stroke-width="3"/>
        <path id="패스_3778" data-name="패스 3778" d="M25.8,40.562a84.939,84.939,0,0,1-15.315,8.787,6.187,6.187,0,0,1-1.454.5c-1.766.3-3.58-.9-5.307-.424-1.9.522-2.736,3.041-1.912,4.83a5.679,5.679,0,0,0,4.8,2.95,15.129,15.129,0,0,0,5.78-1.031,102.7,102.7,0,0,0,18.383-8.1,18.523,18.523,0,0,0,5.608-4.288" transform="translate(-0.419 -11.337)" fill="#fff"/>
        <path id="패스_3779" data-name="패스 3779" d="M25.8,40.562a84.939,84.939,0,0,1-15.315,8.787,6.187,6.187,0,0,1-1.454.5c-1.766.3-3.58-.9-5.307-.424-1.9.522-2.736,3.041-1.912,4.83a5.679,5.679,0,0,0,4.8,2.95,15.129,15.129,0,0,0,5.78-1.031,102.7,102.7,0,0,0,18.383-8.1,18.523,18.523,0,0,0,5.608-4.288" transform="translate(-0.419 -11.337)" fill="none" stroke="#ea5028" stroke-linecap="round" stroke-miterlimit="10" stroke-width="3"/>
        <path id="패스_3780" data-name="패스 3780" d="M46.636,37.174A87.2,87.2,0,0,1,30.9,46.2a6.294,6.294,0,0,1-1.494.512c-1.814.306-3.677-.922-5.451-.434-1.952.535-2.811,3.124-1.964,4.963a5.832,5.832,0,0,0,4.931,3.028,15.5,15.5,0,0,0,5.937-1.059A105.363,105.363,0,0,0,45.376,48.2c3.727-1.777,6.6-4.225,10.1-6.346Q63.95,36.719,72.828,32.3A37.412,37.412,0,0,0,83.8,24.631a6.114,6.114,0,0,0,1.5-2.146,5.941,5.941,0,0,0,.208-2.35A20.41,20.41,0,0,0,84.247,14.3c-.715-1.906-1.125-2.394.157-4.077,1.259-1.652,3.054-2.386,4.22-4.18a3.456,3.456,0,0,0,.667-3,2.642,2.642,0,0,0-2.2-1.515,6.762,6.762,0,0,0-2.757.413c-2.6.808-6.526,2.019-8.481,4.009-1.249,1.272-.739,3.01-.589,4.712.068.777,1.218,8.894.548,9.059a97.248,97.248,0,0,0-15.736,5.254" transform="translate(-6.056 -0.419)" fill="#fff"/>
        <path id="패스_3781" data-name="패스 3781" d="M46.636,37.174A87.2,87.2,0,0,1,30.9,46.2a6.294,6.294,0,0,1-1.494.512c-1.814.306-3.677-.922-5.451-.434-1.952.535-2.811,3.124-1.964,4.963a5.832,5.832,0,0,0,4.931,3.028,15.5,15.5,0,0,0,5.937-1.059A105.363,105.363,0,0,0,45.376,48.2c3.727-1.777,6.6-4.225,10.1-6.346Q63.95,36.719,72.828,32.3A37.412,37.412,0,0,0,83.8,24.631a6.114,6.114,0,0,0,1.5-2.146,5.941,5.941,0,0,0,.208-2.35A20.41,20.41,0,0,0,84.247,14.3c-.715-1.906-1.125-2.394.157-4.077,1.259-1.652,3.054-2.386,4.22-4.18a3.456,3.456,0,0,0,.667-3,2.642,2.642,0,0,0-2.2-1.515,6.762,6.762,0,0,0-2.757.413c-2.6.808-6.526,2.019-8.481,4.009-1.249,1.272-.739,3.01-.589,4.712.068.777,1.218,8.894.548,9.059a97.248,97.248,0,0,0-15.736,5.254" transform="translate(-6.056 -0.419)" fill="none" stroke="#ea5028" stroke-linecap="round" stroke-miterlimit="10" stroke-width="3"/>
        <path id="패스_3782" data-name="패스 3782" d="M37.852,29.286l1.677-7.448a3.558,3.558,0,0,1,2.352-2.6l19.047-6.308a6.471,6.471,0,0,1,3.58-.14l7.518,1.854a4.26,4.26,0,0,1,3.154,3.287l.82,4.03a4.512,4.512,0,0,1-1.932,4.662L60.124,35.856a3.961,3.961,0,0,1-3.569.408Z" transform="translate(-10.579 -3.523)" fill="#fff"/>
        <path id="패스_3783" data-name="패스 3783" d="M37.852,29.286l1.677-7.448a3.558,3.558,0,0,1,2.352-2.6l19.047-6.308a6.471,6.471,0,0,1,3.58-.14l7.518,1.854a4.26,4.26,0,0,1,3.154,3.287l.82,4.03a4.512,4.512,0,0,1-1.932,4.662L60.124,35.856a3.961,3.961,0,0,1-3.569.408Z" transform="translate(-10.579 -3.523)" fill="none" stroke="#ea5028" stroke-linecap="round" stroke-miterlimit="10" stroke-width="3"/>
        <line id="선_738" data-name="선 738" x2="14.236" y2="4.582" transform="translate(32.319 17.66)" fill="none" stroke="#ea5028" stroke-linecap="round" stroke-miterlimit="10" stroke-width="3"/>
        <line id="선_739" data-name="선 739" y1="6.055" x2="11.618" transform="translate(49.992 15.697)" fill="none" stroke="#ea5028" stroke-linecap="round" stroke-miterlimit="10" stroke-width="3"/>
        <line id="선_740" data-name="선 740" x1="0.164" y2="5.4" transform="translate(48.028 24.696)" fill="none" stroke="#ea5028" stroke-linecap="round" stroke-miterlimit="10" stroke-width="3"/>
        <path id="패스_3784" data-name="패스 3784" d="M48.756,34.538c.822,6.047-3.728,11.659-10.163,12.533S26.276,43.752,25.454,37.7s3.729-11.659,10.163-12.533,12.317,3.319,13.139,9.367" transform="translate(-7.087 -7.003)" fill="#fff"/>
        <path id="패스_3785" data-name="패스 3785" d="M48.756,34.538c.822,6.047-3.728,11.659-10.163,12.533S26.276,43.752,25.454,37.7s3.729-11.659,10.163-12.533S47.934,28.491,48.756,34.538Z" transform="translate(-7.087 -7.003)" fill="none" stroke="#ea5028" stroke-linecap="round" stroke-miterlimit="10" stroke-width="3"/>
        <path id="패스_3786" data-name="패스 3786" d="M36.126,48.7l-3.7-.538a6.4,6.4,0,0,1-5.4-7.23l.146-1.007a6.4,6.4,0,0,1,7.23-5.4l3.7.537a6.4,6.4,0,0,1,5.4,7.23L43.357,43.3a6.4,6.4,0,0,1-7.23,5.4" transform="translate(-7.534 -9.631)" fill="#ea5028"/>
        <path id="패스_3787" data-name="패스 3787" d="M40.955,35.621l5.995-2.755.464,9.123Z" transform="translate(-11.446 -9.186)" fill="#ea5028"/>
        <path id="패스_3788" data-name="패스 3788" d="M27.1,31.567,31.746,36.2,25.364,40.92Z" transform="translate(-7.089 -8.823)" fill="#ea5028"/>
      </g>
    </g>
    <g id="그룹_571" data-name="그룹 571" transform="matrix(0.899, 0.438, -0.438, 0.899, 1263.767, 371.327)">
      <path id="패스_3789" data-name="패스 3789" d="M43.581,7.22,44.5,9.714l-8.532,15.1-14.046,6.3L0,22.447l.656-1.838,11.158-4.595L20.872.262,23.365,0Z" transform="translate(1.17 1.113)" fill="#fff"/>
      <g id="그룹_569" data-name="그룹 569" transform="translate(0 0)">
        <g id="그룹_568" data-name="그룹 568" clip-path="url(#clip-path-2)">
          <path id="패스_3790" data-name="패스 3790" d="M24.284,23.923l7.537-13.5A2.182,2.182,0,0,0,30.649,7.3L10.533.127a2.182,2.182,0,0,0-2.639.992L0,15.26" transform="translate(13.773 1.08)" fill="none" stroke="#ea5028" stroke-linecap="round" stroke-linejoin="round" stroke-width="3"/>
          <path id="패스_3791" data-name="패스 3791" d="M35.138,9.451l-13.52,5.513L.659,6.487a1.054,1.054,0,0,1,0-1.954L11.772,0" transform="translate(1.081 17.259)" fill="none" stroke="#ea5028" stroke-linecap="round" stroke-linejoin="round" stroke-width="3"/>
          <line id="선_741" data-name="선 741" x1="19.69" y1="6.957" transform="translate(15.085 18.046)" fill="none" stroke="#ea5028" stroke-linecap="round" stroke-linejoin="round" stroke-width="3"/>
          <path id="패스_3792" data-name="패스 3792" d="M23.782,8.425,18.94,17.038a1.806,1.806,0,0,1-2.205.807l-15.559-5.8A1.807,1.807,0,0,1,.215,9.5L4.792.954A1.807,1.807,0,0,1,7,.108L22.823,5.841a1.807,1.807,0,0,1,.959,2.584" transform="translate(17.848 4.394)"/>
        </g>
      </g>
    </g>
  </g>
</svg>
