<svg width="47" height="54" viewBox="0 0 47 54" fill="none" xmlns="http://www.w3.org/2000/svg">
<path d="M41.864 0H5.13602C2.29988 0 0 2.30856 0 5.1554V42.022C0 44.8688 2.29988 47.1774 5.13602 47.1774H41.864C44.7001 47.1774 47 44.8705 47 42.022V5.1554C47 2.30856 44.7001 0 41.864 0ZM13.3152 34.9016H9.6119V36.5917L12.8441 36.6015V37.8564H9.6119V40.7818H8.25577V33.6467H13.3152V34.9016ZM19.4129 38.4733C19.4129 39.2062 19.157 39.8067 18.6435 40.2697C18.1301 40.7344 17.4439 40.9651 16.5849 40.9651C15.7259 40.9651 15.0364 40.7327 14.536 40.2697C14.0356 39.8067 13.7862 39.2079 13.7862 38.4733V33.6074H15.1815V38.1362C15.1815 38.5027 15.2548 38.8561 15.4032 39.1931C15.5515 39.5318 15.9443 39.6987 16.5865 39.6987C17.2287 39.6987 17.6346 39.5302 17.7894 39.1931C17.9443 38.8545 18.0209 38.5027 18.0209 38.1362V33.6074H19.4161V38.4733H19.4129ZM25.8284 40.7524L24.2506 40.772L21.5775 35.8964L21.5204 35.9062V40.7818H20.1626V33.5976H21.7111L24.4234 38.4831L24.4804 38.4733V33.6074H25.8268V40.7524H25.8284ZM31.6865 40.0717C31.1682 40.6607 30.4363 40.9552 29.4942 40.9552C28.482 40.9552 27.68 40.6035 27.0884 39.8983C26.4999 39.1931 26.2049 38.2867 26.2049 37.1791C26.2049 36.0714 26.4999 35.1814 27.0884 34.4909C27.6784 33.7989 28.4804 33.4537 29.4942 33.4537C30.508 33.4537 31.2366 33.7531 31.7354 34.3519C32.2358 34.9507 32.5341 35.5102 32.6302 36.0322L31.1877 36.0224C31.1046 35.7197 30.9351 35.4252 30.6824 35.1389C30.4298 34.8525 30.0484 34.7102 29.5431 34.7102C28.9465 34.7102 28.4787 34.9343 28.1381 35.3859C27.799 35.8358 27.6279 36.4347 27.6279 37.1824C27.6279 37.9301 27.799 38.5354 28.1381 39.0017C28.4771 39.468 28.9465 39.702 29.5431 39.702C30.0304 39.702 30.4086 39.5465 30.6775 39.234C30.9465 38.9216 31.1307 38.6091 31.2268 38.2933H32.6596C32.5308 38.8921 32.2081 39.486 31.6881 40.075L31.6865 40.0717ZM38.7279 40.7818H37.3522V37.6634H34.4949V40.7818H33.1192V33.6091H34.4949V36.3987H37.3522V33.6091H38.7279V40.7818ZM38.7442 32.4114H29.3084V19.3945H27.799V32.4098H19.3672V19.3945H17.8579V32.4098H8.29325V6.21233L13.8335 11.1861H33.5218L38.7426 6.21233V32.4114H38.7442Z" fill="white"/>
<path d="M17.3327 46.0632L31.4351 53.4274L25.8509 46.0632H17.3327Z" fill="white"/>
</svg>
