<svg xmlns="http://www.w3.org/2000/svg" width="30" height="30" viewBox="0 0 30 30">
  <g id="그룹_664" data-name="그룹 664" transform="translate(16398.5 -7675)">
    <circle id="타원_164" data-name="타원 164" cx="15" cy="15" r="15" transform="translate(-16398.5 7675)" fill="#ea5028"/>
    <path id="패스_4125" data-name="패스 4125" d="M39.478,113.212a2.366,2.366,0,0,0-1.665-1.665c-1.478-.4-7.39-.4-7.39-.4a57.443,57.443,0,0,0-7.39.389,2.414,2.414,0,0,0-1.665,1.68,26.724,26.724,0,0,0,0,9.086,2.367,2.367,0,0,0,1.665,1.665,55.386,55.386,0,0,0,7.39.4,57.437,57.437,0,0,0,7.39-.389,2.366,2.366,0,0,0,1.665-1.665,24.941,24.941,0,0,0,.389-4.543A23.67,23.67,0,0,0,39.478,113.212ZM28.54,120.587v-5.663l4.916,2.832Z" transform="translate(-16413.979 7571.857)" fill="#fff"/>
  </g>
</svg>
