<svg xmlns="http://www.w3.org/2000/svg" width="30" height="30" viewBox="0 0 30 30">
  <g id="그룹_662" data-name="그룹 662" transform="translate(16451.5 -7516)">
    <circle id="타원_161" data-name="타원 161" cx="15" cy="15" r="15" transform="translate(-16451.5 7516)" fill="#ea5028"/>
    <path id="ic_insta" d="M12.309,0H4.691A4.7,4.7,0,0,0,0,4.691v7.617A4.7,4.7,0,0,0,4.691,17h7.617A4.7,4.7,0,0,0,17,12.309V4.691A4.7,4.7,0,0,0,12.309,0M8.5,12.881A4.38,4.38,0,1,1,12.881,8.5,4.385,4.385,0,0,1,8.5,12.881m5.346-8.151a1.107,1.107,0,1,1,.324-.782,1.116,1.116,0,0,1-.324.782" transform="translate(-16445 7523)" fill="#fff"/>
  </g>
</svg>
