<svg xmlns="http://www.w3.org/2000/svg" width="1575" height="747"><g fill="rgba(235,74,51,0.6)"><g transform="translate(-165 -1160)"><circle cx="1.5" cy="1.5" r="1.5" data-name="타원 16" transform="translate(843 1479)"/><circle cx="1.5" cy="1.5" r="1.5" data-name="타원 30" transform="translate(1432 1591)"/><circle cx="1.5" cy="1.5" r="1.5" data-name="타원 17" transform="translate(1374 1868)"/><circle cx="1.5" cy="1.5" r="1.5" data-name="타원 32" transform="translate(765 1185)"/><circle cx="1.5" cy="1.5" r="1.5" data-name="타원 18" transform="translate(165 1705)"/><circle cx="1.5" cy="1.5" r="1.5" data-name="타원 19" transform="translate(407 1876)"/><circle cx="1.5" cy="1.5" r="1.5" data-name="타원 20" transform="translate(835 1733)"/><circle cx="1.5" cy="1.5" r="1.5" data-name="타원 33" transform="translate(1531 1346)"/><circle cx="1.5" cy="1.5" r="1.5" data-name="타원 29" transform="translate(516 1498)"/><circle cx="1.5" cy="1.5" r="1.5" data-name="타원 21" transform="translate(1691 1312)"/><circle cx="1.5" cy="1.5" r="1.5" data-name="타원 22" transform="translate(1298 1900)"/><circle cx="1.5" cy="1.5" r="1.5" data-name="타원 23" transform="translate(591 1285)"/></g><g transform="translate(-165 -1160)"><circle cx="2.5" cy="2.5" r="2.5" data-name="타원 4" transform="translate(185 1237)"/><circle cx="2.5" cy="2.5" r="2.5" data-name="타원 6" transform="translate(484 1466)"/><circle cx="2.5" cy="2.5" r="2.5" data-name="타원 35" transform="translate(1308 1453)"/><circle cx="2.5" cy="2.5" r="2.5" data-name="타원 37" transform="translate(1259 1318)"/><circle cx="2.5" cy="2.5" r="2.5" data-name="타원 7" transform="translate(1499 1314)"/><circle cx="2.5" cy="2.5" r="2.5" data-name="타원 28" transform="translate(1295 1710)"/><circle cx="2.5" cy="2.5" r="2.5" data-name="타원 11" transform="translate(872 1714)"/><circle cx="2.5" cy="2.5" r="2.5" data-name="타원 24" transform="translate(546 1735)"/><circle cx="2.5" cy="2.5" r="2.5" data-name="타원 34" transform="translate(406 1640)"/><circle cx="2.5" cy="2.5" r="2.5" data-name="타원 8" transform="translate(1508 1771)"/><circle cx="2.5" cy="2.5" r="2.5" data-name="타원 26" transform="translate(1091 1229)"/><circle cx="2.5" cy="2.5" r="2.5" data-name="타원 27" transform="translate(1606 1660)"/><circle cx="2.5" cy="2.5" r="2.5" data-name="타원 9" transform="translate(245 1902)"/><circle cx="2.5" cy="2.5" r="2.5" data-name="타원 10" transform="translate(1735 1363)"/><circle cx="2.5" cy="2.5" r="2.5" data-name="타원 40" transform="translate(536 1160)"/></g></g></svg>