<svg xmlns="http://www.w3.org/2000/svg" xmlns:xlink="http://www.w3.org/1999/xlink" width="44" height="44" viewBox="0 0 44 44">
  <defs>
    <clipPath id="clip-path">
      <rect id="사각형_342" data-name="사각형 342" width="26" height="20" transform="translate(-0.002 0)" fill="#fff"/>
    </clipPath>
  </defs>
  <g id="그룹_903" data-name="그룹 903" transform="translate(0 0)">
    <circle id="타원_162" data-name="타원 162" cx="22" cy="22" r="22" transform="translate(0 0)" fill="#ea5028"/>
    <g id="Discord-Logo-White" transform="translate(9.001 12)" clip-path="url(#clip-path)">
      <path id="패스_4126" data-name="패스 4126" d="M23.244,2.147A22.643,22.643,0,0,0,17.655.413a.085.085,0,0,0-.09.042,15.772,15.772,0,0,0-.7,1.429,20.9,20.9,0,0,0-6.277,0A14.466,14.466,0,0,0,9.886.456.088.088,0,0,0,9.8.413,22.58,22.58,0,0,0,4.207,2.147a.08.08,0,0,0-.037.032A23.174,23.174,0,0,0,.113,17.807a.094.094,0,0,0,.036.064,22.77,22.77,0,0,0,6.856,3.466.089.089,0,0,0,.1-.032,16.274,16.274,0,0,0,1.4-2.282.087.087,0,0,0-.048-.121,14.994,14.994,0,0,1-2.142-1.021.088.088,0,0,1-.009-.146c.144-.108.288-.22.425-.333a.085.085,0,0,1,.089-.012,16.238,16.238,0,0,0,13.8,0,.085.085,0,0,1,.09.011c.137.113.281.227.426.334a.088.088,0,0,1-.008.146,14.07,14.07,0,0,1-2.143,1.02.088.088,0,0,0-.047.122,18.273,18.273,0,0,0,1.4,2.28.087.087,0,0,0,.1.033A22.694,22.694,0,0,0,27.3,17.871a.088.088,0,0,0,.036-.063A23.022,23.022,0,0,0,23.28,2.179.07.07,0,0,0,23.244,2.147ZM9.176,14.687A2.639,2.639,0,0,1,6.708,11.92,2.625,2.625,0,0,1,9.176,9.153a2.61,2.61,0,0,1,2.468,2.767A2.625,2.625,0,0,1,9.176,14.687Zm9.124,0a2.639,2.639,0,0,1-2.468-2.767A2.625,2.625,0,0,1,18.3,9.153a2.61,2.61,0,0,1,2.468,2.767A2.618,2.618,0,0,1,18.3,14.687Z" transform="translate(-0.148 -1.267)" fill="#fff"/>
    </g>
  </g>
</svg>
