<svg xmlns="http://www.w3.org/2000/svg" width="42" height="42" viewBox="0 0 42 42">
  <g id="그룹_664" data-name="그룹 664" transform="translate(0.234 0)">
    <circle id="타원_164" data-name="타원 164" cx="21" cy="21" r="21" transform="translate(-0.234 0)" fill="#ea5028"/>
    <path id="패스_4125" data-name="패스 4125" d="M47.971,114.162a3.453,3.453,0,0,0-2.429-2.429c-2.157-.59-10.783-.59-10.783-.59s-8.626,0-10.783.568a3.523,3.523,0,0,0-2.429,2.452,38.994,38.994,0,0,0,0,13.257,3.453,3.453,0,0,0,2.429,2.429c2.179.59,10.783.59,10.783.59s8.626,0,10.783-.568a3.453,3.453,0,0,0,2.429-2.429,36.393,36.393,0,0,0,.567-6.629A34.537,34.537,0,0,0,47.971,114.162Zm-15.959,10.76V116.66l7.174,4.132Z" transform="translate(-14.212 -100.143)" fill="#fff"/>
  </g>
</svg>
