<svg id="그룹_901" data-name="그룹 901" xmlns="http://www.w3.org/2000/svg" width="43.774" height="43.774" viewBox="0 0 43.774 43.774">
  <circle id="타원_161" data-name="타원 161" cx="21.887" cy="21.887" r="21.887" fill="#ea5028"/>
  <path id="ic_insta" d="M17.96,0H6.845A6.853,6.853,0,0,0,0,6.845V17.96a6.853,6.853,0,0,0,6.845,6.845H17.96a6.853,6.853,0,0,0,6.845-6.845V6.845A6.853,6.853,0,0,0,17.96,0M12.4,18.795A6.391,6.391,0,1,1,18.795,12.4,6.4,6.4,0,0,1,12.4,18.795M20.2,6.9a1.615,1.615,0,1,1,.473-1.141A1.628,1.628,0,0,1,20.2,6.9" transform="translate(9.484 10.214)" fill="#fff"/>
</svg>
