<svg xmlns="http://www.w3.org/2000/svg" xmlns:xlink="http://www.w3.org/1999/xlink" width="30" height="30" viewBox="0 0 30 30">
  <defs>
    <clipPath id="clip-path">
      <rect id="사각형_342" data-name="사각형 342" width="18" height="14" transform="translate(0.274 0.502)" fill="#fff"/>
    </clipPath>
  </defs>
  <g id="그룹_661" data-name="그룹 661" transform="translate(16408 -7516)">
    <circle id="타원_162" data-name="타원 162" cx="15" cy="15" r="15" transform="translate(-16408 7516)" fill="#ea5028"/>
    <g id="Discord-Logo-White" transform="translate(-16402.273 7523.498)" clip-path="url(#clip-path)">
      <path id="패스_4126" data-name="패스 4126" d="M15.93,1.6A15.518,15.518,0,0,0,12.1.413a.058.058,0,0,0-.062.029,10.809,10.809,0,0,0-.477.98,14.326,14.326,0,0,0-4.3,0,9.914,9.914,0,0,0-.484-.98A.06.06,0,0,0,6.713.413,15.475,15.475,0,0,0,2.883,1.6a.055.055,0,0,0-.025.022A15.882,15.882,0,0,0,.078,12.333a.065.065,0,0,0,.024.044,15.6,15.6,0,0,0,4.7,2.375.061.061,0,0,0,.066-.022,11.153,11.153,0,0,0,.961-1.564.06.06,0,0,0-.033-.083,10.276,10.276,0,0,1-1.468-.7.06.06,0,0,1-.006-.1c.1-.074.2-.151.292-.228a.058.058,0,0,1,.061-.008,11.129,11.129,0,0,0,9.457,0,.058.058,0,0,1,.062.007c.094.078.193.155.292.229a.06.06,0,0,1-.005.1,9.643,9.643,0,0,1-1.469.7.06.06,0,0,0-.032.084,12.523,12.523,0,0,0,.961,1.563.06.06,0,0,0,.066.022,15.553,15.553,0,0,0,4.706-2.375.06.06,0,0,0,.024-.043A15.778,15.778,0,0,0,15.955,1.623.048.048,0,0,0,15.93,1.6ZM6.288,10.2A1.809,1.809,0,0,1,4.6,8.3,1.8,1.8,0,0,1,6.288,6.4,1.789,1.789,0,0,1,7.98,8.3,1.8,1.8,0,0,1,6.288,10.2Zm6.253,0A1.809,1.809,0,0,1,10.85,8.3a1.8,1.8,0,0,1,1.691-1.9,1.789,1.789,0,0,1,1.691,1.9A1.794,1.794,0,0,1,12.541,10.2Z" transform="translate(0.022 -0.219)" fill="#fff"/>
    </g>
  </g>
</svg>
